<svg width="89" height="89" viewBox="0 0 89 89" fill="none" xmlns="http://www.w3.org/2000/svg">
<path d="M14.8333 22.25H7.41663V74.1667C7.41663 78.2458 10.7541 81.5833 14.8333 81.5833H66.75V74.1667H14.8333V22.25ZM74.1666 7.41667H29.6666C25.5875 7.41667 22.25 10.7542 22.25 14.8333V59.3333C22.25 63.4125 25.5875 66.75 29.6666 66.75H74.1666C78.2458 66.75 81.5833 63.4125 81.5833 59.3333V14.8333C81.5833 10.7542 78.2458 7.41667 74.1666 7.41667ZM70.4583 40.7917H33.375V33.375H70.4583V40.7917ZM55.625 55.625H33.375V48.2083H55.625V55.625ZM70.4583 25.9583H33.375V18.5417H70.4583V25.9583Z" fill="#1D809F"/>
</svg>
